<svg xmlns="http://www.w3.org/2000/svg" width="470" height="448" viewBox="0 0 470 448">
  <defs>
    <style>
      .cls-1 {
        fill: #fff;
        fill-rule: evenodd;
      }
    </style>
  </defs>
  <path id="Shape_1_copy" data-name="Shape 1 copy" class="cls-1" d="M400.468,448a69.545,69.545,0,0,1-16.507-137.1V139.807s4.168-54.2-49.022-54.034H249.9l27.012,26.016s8.8,11.313-1,22.014c-9.438,10.306-22.01,1-22.01,1L202.879,83.771s-17.042-12.041-1-28.018L253.9,3.721s10-9.59,23.01,2c7.407,7.989,1,19.012,1,19.012L249.9,52.752h88.04s75.631,1.718,78.035,82.051V310.67A69.542,69.542,0,0,1,400.468,448Zm0-107.067a37.524,37.524,0,1,0,37.517,37.523A37.52,37.52,0,0,0,400.468,340.933ZM216,313l51,51s17.033,12.033,1,28l-52,52s-10,9.584-23-2c-7.4-7.984-1-19-1-19l28-28H132s-75.6-1.716-78-82V137.243a69.486,69.486,0,1,1,32-.23V308s-4.167,54.167,49,54h85l-27-26s-8.794-11.306,1-22C203.433,303.7,216,313,216,313ZM107,69.5A37.5,37.5,0,1,0,69.5,107,37.5,37.5,0,0,0,107,69.5Z"/>
</svg>
